<!-- Generated by IcoMoon.io -->
<svg version="1.1" xmlns="http://www.w3.org/2000/svg" width="64" height="64" viewBox="0 0 64 64">
<title>deploy</title>
<path fill="#c25608" d="M10.8 52.5c1.5 1.5 5.1 0.6 13-5.8l-7.2-7.2c-6.4 7.9-7.3 11.5-5.8 13z"></path>
<path fill="#c25608" d="M25.3 62c1.1 1.1 3.7 0.5 9.6-4.3l-5.3-5.3c-4.9 5.9-5.4 8.4-4.3 9.6z"></path>
<path fill="#c25608" d="M6.9 29.8c-4.8 5.9-5.4 8.4-4.3 9.6s3.7 0.5 9.6-4.3l-5.3-5.3z"></path>
<path fill="#888b8d" d="M61.2 2.1c-3.5-3.5-15.7 4.9-26.4 15-2.8-1.1-5.8-1.7-9-1.7-6.3 0-12.4 2.3-16.3 6.2l-0.7 0.7 32.2 32.2 0.7-0.7c6-6 7.9-16.7 4.5-25.2 10-10.7 18.5-22.9 15-26.5zM11.6 22.4c3.5-3.1 8.7-4.9 14.1-4.9 2.6 0 5.1 0.4 7.4 1.2-0.5 0.5-1 1-1.5 1.5-3.9 3.9-7.3 7.7-10.5 11.8l-9.5-9.6zM33.1 21.6c0.9-0.9 1.7-1.7 2.6-2.5 13-12.5 22.5-17.1 24.1-15.6 1.6 1.6-3.1 11-15.5 24.1-0.8 0.9-1.7 1.8-2.6 2.7-4 3.9-7.7 7.2-11.7 10.4l-7.4-7.4c3.1-4 6.6-7.8 10.5-11.7zM40.9 51.7l-9.5-9.5c4-3.2 7.8-6.5 11.7-10.4 0.5-0.5 1-1.1 1.6-1.6 2.4 7.2 0.9 16.2-3.8 21.5z"></path>
</svg>
