<!-- Generated by IcoMoon.io -->
<svg version="1.1" xmlns="http://www.w3.org/2000/svg" width="64" height="64" viewBox="0 0 64 64">
<title>family</title>
<path fill="#c25608" d="M56.8 35.5c1-0.9 1.7-2.3 1.7-3.7 0-2.8-2.3-5-5-5-1.6 0-3 0.7-3.9 1.9-1.1-1.1-2.3-1.9-3.7-2.4 1.2-1 2-2.5 2-4.2 0-3-2.5-5.5-5.5-5.5s-5.5 2.5-5.5 5.5c0 1.7 0.8 3.2 2 4.2-2.2 0.9-4.1 2.5-5.3 4.6-1-3.1-3.3-5.5-6.4-6.6 1.2-1 2-2.5 2-4.2 0-3-2.5-5.5-5.5-5.5s-5.5 2.5-5.5 5.5c0 1.7 0.8 3.2 2 4.3-2 0.8-3.7 2.2-5 4-0.9-1-2.2-1.6-3.6-1.6-2.8 0-5 2.3-5 5 0 1.5 0.7 2.9 1.7 3.8-3.5 1.4-6.1 5-6.1 9.2v6.2h2v-6.3c0-4.2 3.5-7.8 7.4-7.8 4.1 0 7.4 3.3 7.4 7.4v6.7h2v-6.7c0-4-2.5-7.4-6.1-8.8 1-0.9 1.7-2.3 1.7-3.7 0-0.5-0.1-1-0.3-1.5 0-0.1 0.1-0.2 0.1-0.2l-0.2-0.1c0 0 0 0 0 0l0.2 0.1c1.5-2.7 4.3-4.4 7.2-4.4 4.6 0 8.4 3.7 8.4 8.4v16.9h2v-14.6c0-4.7 3.9-8.8 8.4-8.8 2.5 0 4.7 1.1 6.3 2.9-0.1 0.4-0.2 0.8-0.2 1.2 0 1.5 0.7 2.9 1.7 3.8-3.5 1.4-6.1 5-6.1 9.2v6.3h2v-6.3c0-4.2 3.5-7.8 7.4-7.8 4.1 0 7.4 3.3 7.4 7.4v6.7h2v-6.7c0-4.1-2.5-7.5-6.1-8.8zM11.5 28.7c1.7 0 3 1.4 3 3s-1.4 3-3 3c-1.7 0-3-1.4-3-3s1.3-3 3-3zM23.6 16.5c1.9 0 3.5 1.6 3.5 3.5s-1.6 3.5-3.5 3.5c-1.9 0-3.5-1.6-3.5-3.5s1.6-3.5 3.5-3.5zM42.3 18.5c1.9 0 3.5 1.6 3.5 3.5s-1.6 3.5-3.5 3.5c-1.9 0-3.5-1.6-3.5-3.5s1.6-3.5 3.5-3.5zM53.5 28.7c1.7 0 3 1.4 3 3s-1.4 3-3 3c-1.7 0-3-1.4-3-3s1.3-3 3-3z"></path>
</svg>
