<!-- Generated by IcoMoon.io -->
<svg version="1.1" xmlns="http://www.w3.org/2000/svg" width="24" height="24" viewBox="0 0 24 24">
<title>open_source</title>
<path fill="#c25608" d="M15.24 23.035l-2.47-7.735 0.41-0.18c1.082-0.495 1.82-1.568 1.82-2.814 0-0.007-0-0.015-0-0.022v0.001c0-1.657-1.343-3-3-3s-3 1.343-3 3v0c-0 0.005-0 0.011-0 0.016 0 1.246 0.738 2.319 1.801 2.806l0.019 0.008 0.41 0.18-2.47 7.74-0.5-0.18c-4.28-1.66-7.26-5.745-7.26-10.526 0-0.016 0-0.031 0-0.047v0.002c-0-0.033-0.001-0.072-0.001-0.111 0-6.102 4.909-11.058 10.993-11.134l0.007-0c6.092 0.076 11.001 5.032 11.001 11.134 0 0.039-0 0.078-0.001 0.117l0-0.006c0 0.012 0 0.026 0 0.041 0 4.785-2.984 8.872-7.193 10.503l-0.077 0.026zM14 15.825l1.88 5.895c3.635-1.636 6.12-5.227 6.12-9.397 0-0.013-0-0.026-0-0.040v0.002c0-0.033 0.001-0.072 0.001-0.111 0-5.55-4.461-10.058-9.993-10.134l-0.007-0c-5.539 0.076-10.001 4.584-10.001 10.134 0 0.039 0 0.078 0.001 0.117l-0-0.006c-0 0.011-0 0.025-0 0.038 0 4.175 2.49 7.768 6.065 9.376l0.065 0.026 1.87-5.9c-1.206-0.727-2-2.030-2-3.519 0-0.008 0-0.015 0-0.023v0.001c0-2.209 1.791-4 4-4s4 1.791 4 4v0c0 0.006 0 0.014 0 0.021 0 1.488-0.794 2.791-1.982 3.508l-0.018 0.010z"></path>
</svg>
