<!-- Generated by IcoMoon.io -->
<svg version="1.1" xmlns="http://www.w3.org/2000/svg" width="64" height="64" viewBox="0 0 64 64">
<title>coder</title>
<path fill="#888b8d" d="M24.6 21.1l-6.2-3.2 6.2-3.9c0.4-0.2 0.5-0.7 0.2-1-0.2-0.3-0.7-0.5-1-0.2l-7.3 4.6c-0.2 0.1-0.4 0.4-0.3 0.7 0 0.3 0.2 0.5 0.4 0.6l7.3 3.8c0.1 0.1 0.2 0.1 0.3 0.1 0.3 0 0.5-0.1 0.7-0.4 0.2-0.4 0-0.9-0.3-1.1z"></path>
<path fill="#888b8d" d="M45.2 16.5l-7.3-3.8c-0.4-0.2-0.8 0-1 0.3-0.2 0.4 0 0.8 0.3 1l6.2 3.2-6.2 3.9c-0.4 0.2-0.5 0.7-0.2 1 0.1 0.2 0.4 0.3 0.6 0.3 0.1 0 0.3 0 0.4-0.1l7.3-4.6c0.2-0.1 0.4-0.4 0.3-0.7 0-0.1-0.2-0.4-0.4-0.5z"></path>
<path fill="#888b8d" d="M33.7 10.3c-0.4-0.1-0.8 0.1-1 0.4l-5.5 14.7c-0.1 0.4 0.1 0.8 0.4 1 0.1 0 0.2 0 0.3 0 0.3 0 0.6-0.2 0.7-0.5l5.5-14.7c0.2-0.3 0-0.8-0.4-0.9z"></path>
<path fill="#c25608" d="M55.3 31.9l-3.5-7c-0.2-0.4-0.3-0.9-0.2-1.4l0.7-3.8c0-0.1 0-0.3 0-0.4 0-10.2-8.3-18.5-18.5-18.5h-4.1c-11.3 0-20.5 9.2-20.5 20.5 0 5.5 1.3 10.1 2.6 14.4 1.3 4.4 2.6 8.9 2.6 14.4 0 0.7 0.4 1.3 0.9 1.7l16.6 10.1c0.5 0.3 1.1 0.5 1.7 0.5s1.1-0.1 1.6-0.4c1-0.6 1.7-1.7 1.7-2.9v-3.8c0-2.3 1.9-4.2 4.2-4.2h3.4c3.1 0 5.8-2.5 6.1-5.6l0.6-7.4 1.9-0.8c1-0.4 1.9-1.3 2.3-2.3 0.5-0.9 0.4-2.1-0.1-3.1zM53.6 34.4c-0.2 0.5-0.6 1-1.1 1.2l-2.5 1c-0.4 0.1-0.6 0.5-0.6 0.8l-0.7 8c-0.2 2.1-2 3.8-4.1 3.8h-3.4c-3.4 0-6.2 2.8-6.2 6.2v3.8c0 0.5-0.2 0.9-0.7 1.1-0.4 0.2-0.9 0.2-1.3 0l-16.6-10c0-5.9-1.3-10.5-2.6-15-1.2-4.2-2.5-8.6-2.5-13.9 0-10.2 8.3-18.5 18.5-18.5h4.1c9.1 0 16.5 7.4 16.5 16.5l-0.8 3.8c-0.2 0.8 0 1.8 0.4 2.6l3.5 7c0.3 0.5 0.3 1.1 0.1 1.6z"></path>
</svg>
